<svg width="398" height="52" viewBox="0 0 398 52" fill="none" xmlns="http://www.w3.org/2000/svg">
<path d="M36.194 45.738H49.534V49.914H14.734V45.738H31.844V27.99H22.796V23.814H45.532V27.99H36.194V45.738ZM15.14 39.068H10.152L21.52 14.708H13.226V10.416H23.55L27.726 1.426H32.714L28.538 10.416H48.78V14.708H26.508L15.14 39.068ZM16.706 1.426L9.978 15.81V50.436H5.512V25.322L5.28 25.902H0.582L11.95 1.426H16.706ZM107.882 51.016H101.734L82.884 30.252L65.136 51.016H59.22L92.512 12.098H75.518L65.542 27.816H60.264L76.91 1.426H82.246L78.302 7.69H102.256L85.9 26.772L107.882 51.016ZM164.954 30.31H142.914L150.106 37.618L162.75 31.876V36.574L153.296 40.866L163.156 51.016H157.182L136.94 30.31H128.994V44.172L140.13 39.184V43.94L124.76 50.842V30.31H117.046V26.192H125.514V2.354H159.792V6.646H129.806V10.184H158.168V14.302H129.806V17.956H158.168V22.074H129.806V26.192H164.954V30.31ZM193.49 29.382V25.728L174.524 28.744V24.684L179.396 23.872V6.878H175.336V2.934H201.146V6.878H197.55V29.382H193.49ZM183.398 13.258V15.868H193.49V13.258H183.398ZM193.49 6.878H183.398V9.43H193.49V6.878ZM183.398 23.234L193.49 21.668V19.696H183.398V23.234ZM221.388 6.24V27.584H201.958V6.24H221.388ZM217.038 23.408V10.416H206.308V23.408H217.038ZM201.204 46.144H223.302V50.32H174.698V46.144H196.854V42.026H181.426V37.966H196.854V34.312H176.438V30.136H221.562V34.312H201.204V37.966H216.632V42.026H201.204V46.144ZM259.262 45.332H280.374V49.856H233.684V45.332H254.564V30.774H240.412V26.366H254.564V15.172H242.036L237.454 24.974H232.408L242.848 2.586H247.894L244.182 10.648H254.564V1.484H259.262V10.648H276.43V15.172H259.262V26.366H273.588V30.774H259.262V45.332ZM305.836 13.722L300.268 22.364V51.016H295.976V29.034L295.222 30.31H290.234L300.848 13.722H305.836ZM305.198 1.426L295.454 16.622H290.524L300.21 1.426H305.198ZM339.534 23.582H324.222V29.614H335.88V33.906H324.222V45.854H339.418V50.204H319.466L311.81 38.488L307.866 51.016H303.4L310.766 27.7H315.232L313.492 33.21L319.872 42.954V23.582H304.096V19.406H319.64V11.692H307.75V7.516H319.64V1.136H323.932V7.516H335.822V11.692H323.932V19.406H339.534V23.582ZM359.892 17.376H386.05V21.668H359.892V17.376ZM350.844 31.47V27.178H395.214V31.47H373.87L364.996 43.592H384.774L379.438 34.718H384.6L394.402 51.016H389.24L387.326 47.884H352.526V43.592H359.66L368.534 31.47H350.844ZM372.942 0.961997L397.534 16.68V22.016L372.942 6.24L348.524 22.016V16.738L372.942 0.961997Z" fill="#333333"/>
</svg>
