<svg width="217" height="137" viewBox="0 0 217 137" fill="none" xmlns="http://www.w3.org/2000/svg">
<path d="M4.06 60V18.53H13.456L42.804 48.342V18.53H52.084V60H42.688L13.34 30.13V60H4.06ZM74.6329 60.29C69.4515 60.29 65.4109 59.014 62.5109 56.462C59.6109 53.8713 58.1609 50.082 58.1609 45.094C58.1609 40.0673 59.6109 36.278 62.5109 33.726C65.4109 31.1353 69.4515 29.84 74.6329 29.84H89.1329C92.5355 29.84 95.1262 30.652 96.9049 32.276C98.7222 33.8613 99.6309 36.1427 99.6309 39.12C99.6309 45.1907 96.1315 48.226 89.1329 48.226H67.2089C68.0209 51.822 70.4955 53.62 74.6329 53.62H98.1229V60.29H74.6329ZM74.6329 36.51C70.6502 36.51 68.1949 38.192 67.2669 41.556H88.7269C89.5002 41.556 90.0995 41.324 90.5249 40.86C90.9889 40.396 91.2209 39.758 91.2209 38.946C91.2209 37.322 90.3895 36.51 88.7269 36.51H74.6329ZM106.252 60L103.41 30.13H111.878L113.85 52.808L122.84 48.748V30.13H131.25V48.806L140.24 52.808L142.212 30.13H150.68L147.838 60H139.892L127.016 54.316L114.198 60H106.252ZM154.624 60.29V53.62H183.044C184.668 53.62 185.48 52.7113 185.48 50.894C185.48 49.1153 184.668 48.226 183.044 48.226H164.658C161.217 48.226 158.607 47.4527 156.828 45.906C155.049 44.3207 154.16 42.0587 154.16 39.12C154.16 36.1427 155.049 33.8613 156.828 32.276C158.645 30.652 161.255 29.84 164.658 29.84H191.106V36.51H165.064C163.401 36.51 162.57 37.322 162.57 38.946C162.57 39.758 162.802 40.396 163.266 40.86C163.73 41.324 164.329 41.556 165.064 41.556H184.552C187.568 41.556 189.869 42.3487 191.454 43.934C193.078 45.4807 193.89 47.7427 193.89 50.72C193.89 53.736 193.078 56.0947 191.454 57.796C189.83 59.4587 187.529 60.29 184.552 60.29H154.624Z" fill="white"/>
<path d="M4.06 54V12.53H13.456L42.804 42.342V12.53H52.084V54H42.688L13.34 24.13V54H4.06Z" fill="#CCA43B"/>
<path d="M74.6329 54.29C69.4515 54.29 65.4109 53.014 62.5109 50.462C59.6109 47.8713 58.1609 44.082 58.1609 39.094C58.1609 34.0673 59.6109 30.278 62.5109 27.726C65.4109 25.1353 69.4515 23.84 74.6329 23.84H89.1329C92.5355 23.84 95.1262 24.652 96.9049 26.276C98.7222 27.8613 99.6309 30.1427 99.6309 33.12C99.6309 39.1907 96.1315 42.226 89.1329 42.226H67.2089C68.0209 45.822 70.4955 47.62 74.6329 47.62H98.1229V54.29H74.6329ZM74.6329 30.51C70.6502 30.51 68.1949 32.192 67.2669 35.556H88.7269C89.5002 35.556 90.0995 35.324 90.5249 34.86C90.9889 34.396 91.2209 33.758 91.2209 32.946C91.2209 31.322 90.3895 30.51 88.7269 30.51H74.6329ZM106.252 54L103.41 24.13H111.878L113.85 46.808L122.84 42.748V24.13H131.25V42.806L140.24 46.808L142.212 24.13H150.68L147.838 54H139.892L127.016 48.316L114.198 54H106.252ZM154.624 54.29V47.62H183.044C184.668 47.62 185.48 46.7113 185.48 44.894C185.48 43.1153 184.668 42.226 183.044 42.226H164.658C161.217 42.226 158.607 41.4527 156.828 39.906C155.049 38.3207 154.16 36.0587 154.16 33.12C154.16 30.1427 155.049 27.8613 156.828 26.276C158.645 24.652 161.255 23.84 164.658 23.84H191.106V30.51H165.064C163.401 30.51 162.57 31.322 162.57 32.946C162.57 33.758 162.802 34.396 163.266 34.86C163.73 35.324 164.329 35.556 165.064 35.556H184.552C187.568 35.556 189.869 36.3487 191.454 37.934C193.078 39.4807 193.89 41.7427 193.89 44.72C193.89 47.736 193.078 50.0947 191.454 51.796C189.83 53.4587 187.529 54.29 184.552 54.29H154.624Z" fill="#598CA4"/>
</svg>
