<svg width="209" height="69" viewBox="0 0 209 69" fill="none" xmlns="http://www.w3.org/2000/svg">
<path d="M26.73 1.48V9.64H9.56V25.96C10.3533 25.1667 11.3733 24.515 12.62 24.005C13.8667 23.4383 15.255 23.155 16.785 23.155C19.7317 23.155 22.1117 24.0617 23.925 25.875C25.795 27.6317 26.73 30.295 26.73 33.865V49.505C26.73 51.545 26.3617 53.3583 25.625 54.945C24.945 56.5317 24.01 57.8917 22.82 59.025C21.63 60.1583 20.2417 61.0367 18.655 61.66C17.125 62.2267 15.51 62.51 13.81 62.51C12.11 62.51 10.4667 62.2267 8.88 61.66C7.35 61.0367 5.99 60.1583 4.8 59.025C3.61 57.8917 2.64667 56.5317 1.91 54.945C1.23 53.3583 0.89 51.545 0.89 49.505V46.955H9.56V49.165C9.56 50.6383 9.95667 51.8 10.75 52.65C11.6 53.4433 12.6767 53.84 13.98 53.84C15.2833 53.84 16.275 53.4433 16.955 52.65C17.6917 51.8567 18.06 50.7517 18.06 49.335V35.14C18.06 33.95 17.6633 32.93 16.87 32.08C16.1333 31.23 15.17 30.805 13.98 30.805C13.2433 30.805 12.62 30.9467 12.11 31.23C11.6 31.4567 11.175 31.74 10.835 32.08C10.495 32.42 10.24 32.7883 10.07 33.185C9.78667 33.695 9.61667 34.0067 9.56 34.12H1.91V1.48H26.73ZM33.196 68.29V53.33H41.866V62L33.196 68.29ZM65.2489 62V1.48H91.0889V9.64H73.9189V28H88.8789V36.16H73.9189V62H65.2489ZM96.1989 15.76C96.1989 13.3233 96.6239 11.17 97.4739 9.3C98.3239 7.43 99.4572 5.87166 100.874 4.625C102.234 3.435 103.764 2.52833 105.464 1.905C107.221 1.28166 108.977 0.969995 110.734 0.969995C112.491 0.969995 114.219 1.28166 115.919 1.905C117.676 2.52833 119.262 3.435 120.679 4.625C122.039 5.87166 123.144 7.43 123.994 9.3C124.844 11.17 125.269 13.3233 125.269 15.76V47.72C125.269 50.27 124.844 52.4517 123.994 54.265C123.144 56.0783 122.039 57.58 120.679 58.77C119.262 60.0167 117.676 60.9517 115.919 61.575C114.219 62.1983 112.491 62.51 110.734 62.51C108.977 62.51 107.221 62.1983 105.464 61.575C103.764 60.9517 102.234 60.0167 100.874 58.77C99.4572 57.58 98.3239 56.0783 97.4739 54.265C96.6239 52.4517 96.1989 50.27 96.1989 47.72V15.76ZM104.869 47.72C104.869 49.8167 105.436 51.375 106.569 52.395C107.759 53.3583 109.147 53.84 110.734 53.84C112.321 53.84 113.681 53.3583 114.814 52.395C116.004 51.375 116.599 49.8167 116.599 47.72V15.76C116.599 13.6633 116.004 12.1333 114.814 11.17C113.681 10.15 112.321 9.64 110.734 9.64C109.147 9.64 107.759 10.15 106.569 11.17C105.436 12.1333 104.869 13.6633 104.869 15.76V47.72ZM141.57 9.64V28.51H146.5C148.03 28.51 149.249 28.3117 150.155 27.915C151.062 27.4617 151.77 26.8383 152.28 26.045C152.734 25.2517 153.045 24.2883 153.215 23.155C153.385 21.965 153.47 20.605 153.47 19.075C153.47 17.545 153.385 16.2133 153.215 15.08C153.045 13.89 152.705 12.87 152.195 12.02C151.119 10.4333 149.079 9.64 146.075 9.64H141.57ZM132.9 62V1.48H146.84C157.04 1.48 162.14 7.40167 162.14 19.245C162.14 22.815 161.574 25.8467 160.44 28.34C159.364 30.8333 157.437 32.845 154.66 34.375L164.01 62H154.83L146.755 36.16H141.57V62H132.9ZM169.092 62V1.48H177.422L188.557 33.525H188.727L199.777 1.48H208.192V62H199.522V25.195H199.352L190.767 51.205H186.432L177.932 25.195H177.762V62H169.092Z" fill="white"/>
</svg>
