<svg width="166" height="69" viewBox="0 0 166 69" fill="none" xmlns="http://www.w3.org/2000/svg">
<path d="M23.585 1.48L13.725 26.895L13.895 27.065C14.1783 26.8383 14.6033 26.6683 15.17 26.555C15.7933 26.385 16.5867 26.3 17.55 26.3C19.08 26.3 20.4967 26.6683 21.8 27.405C23.1033 28.1417 24.1233 29.0767 24.86 30.21C25.2567 30.8333 25.5683 31.4567 25.795 32.08C26.0217 32.7033 26.22 33.525 26.39 34.545C26.5033 35.565 26.5883 36.8683 26.645 38.455C26.7017 39.985 26.73 41.94 26.73 44.32C26.73 46.3033 26.7017 47.9467 26.645 49.25C26.5883 50.4967 26.5033 51.545 26.39 52.395C26.22 53.3017 25.9933 54.0667 25.71 54.69C25.4833 55.3133 25.1717 55.965 24.775 56.645C23.6417 58.515 22.1117 59.96 20.185 60.98C18.315 62 16.19 62.51 13.81 62.51C11.43 62.51 9.305 62 7.435 60.98C5.565 59.9033 4.06333 58.4583 2.93 56.645C2.47667 55.965 2.10833 55.3133 1.825 54.69C1.59833 54.0667 1.42833 53.3017 1.315 52.395C1.145 51.545 1.03167 50.4967 0.975 49.25C0.918333 47.9467 0.89 46.3033 0.89 44.32C0.89 42.45 0.918333 40.92 0.975 39.73C1.03167 38.4833 1.11667 37.4067 1.23 36.5C1.34333 35.65 1.51333 34.885 1.74 34.205C1.96667 33.4683 2.22167 32.7033 2.505 31.91L13.895 1.48H23.585ZM18.06 38.285C18.06 36.9817 17.635 35.9333 16.785 35.14C15.935 34.3467 14.9433 33.95 13.81 33.95C12.6767 33.95 11.685 34.3467 10.835 35.14C9.985 35.9333 9.56 36.9817 9.56 38.285V49.505C9.56 50.8083 9.985 51.8567 10.835 52.65C11.685 53.4433 12.6767 53.84 13.81 53.84C14.9433 53.84 15.935 53.4433 16.785 52.65C17.635 51.8567 18.06 50.8083 18.06 49.505V38.285ZM33.196 68.29V53.33H41.866V62L33.196 68.29ZM93.2989 18.905H84.6289V16.95C84.6289 14.9667 84.1473 13.2667 83.1839 11.85C82.2773 10.3767 80.7189 9.64 78.5089 9.64C77.3189 9.64 76.3556 9.86666 75.6189 10.32C74.8823 10.7733 74.2873 11.34 73.8339 12.02C73.3806 12.7567 73.0689 13.6067 72.8989 14.57C72.7289 15.4767 72.6439 16.44 72.6439 17.46C72.6439 18.65 72.6723 19.6417 72.7289 20.435C72.8423 21.2283 73.0689 21.9367 73.4089 22.56C73.7489 23.1833 74.2306 23.7217 74.8539 24.175C75.5339 24.6283 76.4406 25.0817 77.5739 25.535L84.2039 28.17C86.1306 28.9067 87.6889 29.785 88.8789 30.805C90.0689 31.7683 91.0039 32.9017 91.6839 34.205C92.3073 35.565 92.7323 37.1233 92.9589 38.88C93.1856 40.58 93.2989 42.535 93.2989 44.745C93.2989 47.295 93.0439 49.675 92.5339 51.885C92.0239 54.0383 91.2023 55.88 90.0689 57.41C88.8789 58.9967 87.3206 60.2433 85.3939 61.15C83.4673 62.0567 81.1156 62.51 78.3389 62.51C76.2423 62.51 74.2873 62.1417 72.4739 61.405C70.6606 60.6683 69.1023 59.6483 67.7989 58.345C66.4956 57.0417 65.4473 55.54 64.6539 53.84C63.9173 52.0833 63.5489 50.185 63.5489 48.145V44.915H72.2189V47.635C72.2189 49.2217 72.6723 50.6667 73.5789 51.97C74.5423 53.2167 76.1289 53.84 78.3389 53.84C79.8123 53.84 80.9456 53.6417 81.7389 53.245C82.5889 52.7917 83.2406 52.1683 83.6939 51.375C84.1473 50.5817 84.4023 49.6467 84.4589 48.57C84.5723 47.4367 84.6289 46.19 84.6289 44.83C84.6289 43.2433 84.5723 41.94 84.4589 40.92C84.3456 39.9 84.1189 39.0783 83.7789 38.455C83.3823 37.8317 82.8439 37.3217 82.1639 36.925C81.5406 36.5283 80.6906 36.1033 79.6139 35.65L73.4089 33.1C69.6689 31.57 67.1473 29.5583 65.8439 27.065C64.5973 24.515 63.9739 21.3417 63.9739 17.545C63.9739 15.2783 64.2856 13.125 64.9089 11.085C65.5323 9.045 66.4673 7.28833 67.7139 5.815C68.9039 4.34166 70.4056 3.18 72.2189 2.33C74.0889 1.42333 76.2989 0.969995 78.8489 0.969995C81.0023 0.969995 82.9573 1.36666 84.7139 2.16C86.5273 2.95333 88.0856 4.00166 89.3889 5.305C91.9956 8.025 93.2989 11.1417 93.2989 14.655V18.905ZM99.4402 62V1.48H107.77L120.86 37.945H121.03V1.48H129.7V62H121.54L108.28 25.62H108.11V62H99.4402ZM165.599 18.905H156.929V16.95C156.929 14.9667 156.447 13.2667 155.484 11.85C154.577 10.3767 153.019 9.64 150.809 9.64C149.619 9.64 148.655 9.86666 147.919 10.32C147.182 10.7733 146.587 11.34 146.134 12.02C145.68 12.7567 145.369 13.6067 145.199 14.57C145.029 15.4767 144.944 16.44 144.944 17.46C144.944 18.65 144.972 19.6417 145.029 20.435C145.142 21.2283 145.369 21.9367 145.709 22.56C146.049 23.1833 146.53 23.7217 147.154 24.175C147.834 24.6283 148.74 25.0817 149.874 25.535L156.504 28.17C158.43 28.9067 159.989 29.785 161.179 30.805C162.369 31.7683 163.304 32.9017 163.984 34.205C164.607 35.565 165.032 37.1233 165.259 38.88C165.485 40.58 165.599 42.535 165.599 44.745C165.599 47.295 165.344 49.675 164.834 51.885C164.324 54.0383 163.502 55.88 162.369 57.41C161.179 58.9967 159.62 60.2433 157.694 61.15C155.767 62.0567 153.415 62.51 150.639 62.51C148.542 62.51 146.587 62.1417 144.774 61.405C142.96 60.6683 141.402 59.6483 140.099 58.345C138.795 57.0417 137.747 55.54 136.954 53.84C136.217 52.0833 135.849 50.185 135.849 48.145V44.915H144.519V47.635C144.519 49.2217 144.972 50.6667 145.879 51.97C146.842 53.2167 148.429 53.84 150.639 53.84C152.112 53.84 153.245 53.6417 154.039 53.245C154.889 52.7917 155.54 52.1683 155.994 51.375C156.447 50.5817 156.702 49.6467 156.759 48.57C156.872 47.4367 156.929 46.19 156.929 44.83C156.929 43.2433 156.872 41.94 156.759 40.92C156.645 39.9 156.419 39.0783 156.079 38.455C155.682 37.8317 155.144 37.3217 154.464 36.925C153.84 36.5283 152.99 36.1033 151.914 35.65L145.709 33.1C141.969 31.57 139.447 29.5583 138.144 27.065C136.897 24.515 136.274 21.3417 136.274 17.545C136.274 15.2783 136.585 13.125 137.209 11.085C137.832 9.045 138.767 7.28833 140.014 5.815C141.204 4.34166 142.705 3.18 144.519 2.33C146.389 1.42333 148.599 0.969995 151.149 0.969995C153.302 0.969995 155.257 1.36666 157.014 2.16C158.827 2.95333 160.385 4.00166 161.689 5.305C164.295 8.025 165.599 11.1417 165.599 14.655V18.905Z" fill="white"/>
</svg>
