<svg width="332" height="69" viewBox="0 0 332 69" fill="none" xmlns="http://www.w3.org/2000/svg">
<path d="M11.175 26.98C13.7817 26.98 15.5667 26.6683 16.53 26.045C17.55 25.4217 18.06 23.9767 18.06 21.71V13.89C18.06 12.6433 17.6633 11.6233 16.87 10.83C16.1333 10.0367 15.1133 9.64 13.81 9.64C12.28 9.64 11.175 10.1217 10.495 11.085C9.87167 12.0483 9.56 12.9833 9.56 13.89V18.82H0.89V13.805C0.89 12.0483 1.23 10.3767 1.91 8.79C2.59 7.20333 3.525 5.84333 4.715 4.71C5.905 3.57667 7.29333 2.67 8.88 1.99C10.4667 1.31 12.1667 0.969995 13.98 0.969995C16.36 0.969995 18.315 1.45166 19.845 2.415C21.4317 3.32166 22.6217 4.25666 23.415 5.22C23.9817 5.9 24.4633 6.58 24.86 7.26C25.3133 7.94 25.6817 8.76166 25.965 9.725C26.475 11.595 26.73 14.3717 26.73 18.055C26.73 20.1517 26.6733 21.8517 26.56 23.155C26.5033 24.4583 26.305 25.535 25.965 26.385C25.5683 27.2917 25.0017 28.0567 24.265 28.68C23.585 29.3033 22.6217 29.9833 21.375 30.72C22.735 31.57 23.755 32.3633 24.435 33.1C25.1717 33.8367 25.71 34.6867 26.05 35.65C26.39 36.67 26.5883 37.8883 26.645 39.305C26.7017 40.665 26.73 42.4217 26.73 44.575C26.73 46.5583 26.6733 48.2017 26.56 49.505C26.5033 50.8083 26.39 51.885 26.22 52.735C26.05 53.6417 25.8233 54.4067 25.54 55.03C25.2567 55.6533 24.8883 56.305 24.435 56.985C23.3583 58.5717 21.97 59.9033 20.27 60.98C18.6267 62 16.445 62.51 13.725 62.51C12.365 62.51 10.92 62.2833 9.39 61.83C7.86 61.3767 6.47167 60.64 5.225 59.62C3.97833 58.6 2.93 57.2683 2.08 55.625C1.28667 53.9817 0.89 51.97 0.89 49.59V44.66H9.56V49.165C9.56 50.525 9.92833 51.6583 10.665 52.565C11.4583 53.415 12.5067 53.84 13.81 53.84C15.1133 53.84 16.1333 53.415 16.87 52.565C17.6633 51.6583 18.06 50.4683 18.06 48.995V40.325C18.06 37.945 17.6067 36.3867 16.7 35.65C16.19 35.1967 15.4817 34.9133 14.575 34.8C13.725 34.6867 12.5917 34.63 11.175 34.63V26.98ZM33.196 68.29V53.33H41.866V62L33.196 68.29ZM93.2989 18.905H84.6289V16.95C84.6289 14.9667 84.1473 13.2667 83.1839 11.85C82.2773 10.3767 80.7189 9.64 78.5089 9.64C77.3189 9.64 76.3556 9.86666 75.6189 10.32C74.8823 10.7733 74.2873 11.34 73.8339 12.02C73.3806 12.7567 73.0689 13.6067 72.8989 14.57C72.7289 15.4767 72.6439 16.44 72.6439 17.46C72.6439 18.65 72.6723 19.6417 72.7289 20.435C72.8423 21.2283 73.0689 21.9367 73.4089 22.56C73.7489 23.1833 74.2306 23.7217 74.8539 24.175C75.5339 24.6283 76.4406 25.0817 77.5739 25.535L84.2039 28.17C86.1306 28.9067 87.6889 29.785 88.8789 30.805C90.0689 31.7683 91.0039 32.9017 91.6839 34.205C92.3073 35.565 92.7323 37.1233 92.9589 38.88C93.1856 40.58 93.2989 42.535 93.2989 44.745C93.2989 47.295 93.0439 49.675 92.5339 51.885C92.0239 54.0383 91.2023 55.88 90.0689 57.41C88.8789 58.9967 87.3206 60.2433 85.3939 61.15C83.4673 62.0567 81.1156 62.51 78.3389 62.51C76.2423 62.51 74.2873 62.1417 72.4739 61.405C70.6606 60.6683 69.1023 59.6483 67.7989 58.345C66.4956 57.0417 65.4473 55.54 64.6539 53.84C63.9173 52.0833 63.5489 50.185 63.5489 48.145V44.915H72.2189V47.635C72.2189 49.2217 72.6723 50.6667 73.5789 51.97C74.5423 53.2167 76.1289 53.84 78.3389 53.84C79.8123 53.84 80.9456 53.6417 81.7389 53.245C82.5889 52.7917 83.2406 52.1683 83.6939 51.375C84.1473 50.5817 84.4023 49.6467 84.4589 48.57C84.5723 47.4367 84.6289 46.19 84.6289 44.83C84.6289 43.2433 84.5723 41.94 84.4589 40.92C84.3456 39.9 84.1189 39.0783 83.7789 38.455C83.3823 37.8317 82.8439 37.3217 82.1639 36.925C81.5406 36.5283 80.6906 36.1033 79.6139 35.65L73.4089 33.1C69.6689 31.57 67.1473 29.5583 65.8439 27.065C64.5973 24.515 63.9739 21.3417 63.9739 17.545C63.9739 15.2783 64.2856 13.125 64.9089 11.085C65.5323 9.045 66.4673 7.28833 67.7139 5.815C68.9039 4.34166 70.4056 3.18 72.2189 2.33C74.0889 1.42333 76.2989 0.969995 78.8489 0.969995C81.0023 0.969995 82.9573 1.36666 84.7139 2.16C86.5273 2.95333 88.0856 4.00166 89.3889 5.305C91.9956 8.025 93.2989 11.1417 93.2989 14.655V18.905ZM127.32 44.745V48.485C127.32 50.355 126.952 52.14 126.215 53.84C125.535 55.4833 124.572 56.9567 123.325 58.26C122.079 59.5633 120.605 60.6117 118.905 61.405C117.262 62.1417 115.477 62.51 113.55 62.51C111.907 62.51 110.235 62.2833 108.535 61.83C106.835 61.3767 105.305 60.5833 103.945 59.45C102.585 58.3167 101.452 56.8717 100.545 55.115C99.6952 53.3017 99.2702 51.0067 99.2702 48.23V14.91C99.2702 12.9267 99.6102 11.085 100.29 9.385C100.97 7.685 101.934 6.21166 103.18 4.965C104.427 3.71833 105.9 2.755 107.6 2.075C109.357 1.33833 111.284 0.969995 113.38 0.969995C117.46 0.969995 120.775 2.30166 123.325 4.965C124.572 6.26833 125.535 7.82666 126.215 9.64C126.952 11.3967 127.32 13.3233 127.32 15.42V18.82H118.65V15.93C118.65 14.23 118.169 12.7567 117.205 11.51C116.242 10.2633 114.939 9.64 113.295 9.64C111.142 9.64 109.697 10.32 108.96 11.68C108.28 12.9833 107.94 14.655 107.94 16.695V47.635C107.94 49.3917 108.309 50.865 109.045 52.055C109.839 53.245 111.227 53.84 113.21 53.84C113.777 53.84 114.372 53.755 114.995 53.585C115.675 53.3583 116.299 53.0183 116.865 52.565C117.375 52.1117 117.8 51.4883 118.14 50.695C118.48 49.9017 118.65 48.91 118.65 47.72V44.745H127.32ZM134.394 62V1.48H143.064V27.405H153.774V1.48H162.444V62H153.774V35.055H143.064V62H134.394ZM170.586 62V1.48H196.426V9.64H179.256V27.405H194.216V35.565H179.256V53.33H196.426V62H170.586ZM202.046 62V1.48H214.881C219.867 1.48 223.636 2.84 226.186 5.56C228.792 8.28 230.096 12.1333 230.096 17.12V45.425C230.096 51.0917 228.707 55.285 225.931 58.005C223.211 60.6683 219.272 62 214.116 62H202.046ZM210.716 9.64V53.84H214.711C217.147 53.84 218.876 53.245 219.896 52.055C220.916 50.8083 221.426 48.8817 221.426 46.275V17.12C221.426 14.74 220.944 12.8983 219.981 11.595C219.017 10.2917 217.261 9.64 214.711 9.64H210.716ZM266.287 1.48V48.4C266.287 50.3833 265.919 52.225 265.182 53.925C264.502 55.5683 263.511 57.0417 262.207 58.345C260.904 59.6483 259.402 60.6683 257.702 61.405C256.002 62.1417 254.189 62.51 252.262 62.51C250.336 62.51 248.522 62.1417 246.822 61.405C245.179 60.6683 243.706 59.6483 242.402 58.345C241.099 57.0417 240.079 55.5683 239.342 53.925C238.606 52.225 238.237 50.3833 238.237 48.4V1.48H246.907V47.55C246.907 49.7033 247.417 51.29 248.437 52.31C249.457 53.33 250.732 53.84 252.262 53.84C253.792 53.84 255.067 53.33 256.087 52.31C257.107 51.29 257.617 49.7033 257.617 47.55V1.48H266.287ZM274.429 62V1.48H283.099V53.33H300.269V62H274.429ZM305.889 62V1.48H331.729V9.64H314.559V27.405H329.519V35.565H314.559V53.33H331.729V62H305.889Z" fill="white"/>
</svg>
