<svg width="198" height="69" viewBox="0 0 198 69" fill="none" xmlns="http://www.w3.org/2000/svg">
<path d="M18.02 62V52.99H0.765V44.83L13.26 1.48H22.44L9.435 44.83H18.02V27.575H26.69V44.83H30.855V52.99H26.69V62H18.02ZM35.196 68.29V53.33H43.866V62L35.196 68.29ZM94.7889 44.745V48.485C94.7889 50.355 94.4206 52.14 93.6839 53.84C93.0039 55.4833 92.0406 56.9567 90.7939 58.26C89.5473 59.5633 88.0739 60.6117 86.3739 61.405C84.7306 62.1417 82.9456 62.51 81.0189 62.51C79.3756 62.51 77.7039 62.2833 76.0039 61.83C74.3039 61.3767 72.7739 60.5833 71.4139 59.45C70.0539 58.3167 68.9206 56.8717 68.0139 55.115C67.1639 53.3017 66.7389 51.0067 66.7389 48.23V14.91C66.7389 12.9267 67.0789 11.085 67.7589 9.385C68.4389 7.685 69.4023 6.21166 70.6489 4.965C71.8956 3.71833 73.3689 2.755 75.0689 2.075C76.8256 1.33833 78.7523 0.969995 80.8489 0.969995C84.9289 0.969995 88.2439 2.30166 90.7939 4.965C92.0406 6.26833 93.0039 7.82666 93.6839 9.64C94.4206 11.3967 94.7889 13.3233 94.7889 15.42V18.82H86.1189V15.93C86.1189 14.23 85.6373 12.7567 84.6739 11.51C83.7106 10.2633 82.4073 9.64 80.7639 9.64C78.6106 9.64 77.1656 10.32 76.4289 11.68C75.7489 12.9833 75.4089 14.655 75.4089 16.695V47.635C75.4089 49.3917 75.7773 50.865 76.5139 52.055C77.3073 53.245 78.6956 53.84 80.6789 53.84C81.2456 53.84 81.8406 53.755 82.4639 53.585C83.1439 53.3583 83.7673 53.0183 84.3339 52.565C84.8439 52.1117 85.2689 51.4883 85.6089 50.695C85.9489 49.9017 86.1189 48.91 86.1189 47.72V44.745H94.7889ZM101.863 62V1.48H110.533V53.33H127.703V62H101.863ZM161.373 1.48V48.4C161.373 50.3833 161.005 52.225 160.268 53.925C159.588 55.5683 158.596 57.0417 157.293 58.345C155.99 59.6483 154.488 60.6683 152.788 61.405C151.088 62.1417 149.275 62.51 147.348 62.51C145.421 62.51 143.608 62.1417 141.908 61.405C140.265 60.6683 138.791 59.6483 137.488 58.345C136.185 57.0417 135.165 55.5683 134.428 53.925C133.691 52.225 133.323 50.3833 133.323 48.4V1.48H141.993V47.55C141.993 49.7033 142.503 51.29 143.523 52.31C144.543 53.33 145.818 53.84 147.348 53.84C148.878 53.84 150.153 53.33 151.173 52.31C152.193 51.29 152.703 49.7033 152.703 47.55V1.48H161.373ZM169.515 62V1.48H182.18C184.956 1.48 187.308 1.905 189.235 2.755C191.218 3.605 192.833 4.73833 194.08 6.155C195.326 7.57166 196.205 9.215 196.715 11.085C197.281 12.8983 197.565 14.7967 197.565 16.78V18.99C197.565 20.6333 197.423 22.0217 197.14 23.155C196.913 24.2883 196.545 25.28 196.035 26.13C195.071 27.7167 193.598 29.0767 191.615 30.21C193.655 31.1733 195.156 32.59 196.12 34.46C197.083 36.33 197.565 38.88 197.565 42.11V45.51C197.565 50.8367 196.261 54.9167 193.655 57.75C191.105 60.5833 186.996 62 181.33 62H169.515ZM178.185 33.95V53.33H181.925C183.681 53.33 185.041 53.075 186.005 52.565C187.025 52.055 187.79 51.3467 188.3 50.44C188.81 49.5333 189.121 48.4567 189.235 47.21C189.348 45.9633 189.405 44.6033 189.405 43.13C189.405 41.6 189.32 40.2683 189.15 39.135C188.98 38.0017 188.64 37.0383 188.13 36.245C187.563 35.4517 186.798 34.885 185.835 34.545C184.871 34.1483 183.596 33.95 182.01 33.95H178.185ZM178.185 9.64V26.3H182.095C184.985 26.3 186.911 25.5917 187.875 24.175C188.895 22.7017 189.405 20.5767 189.405 17.8C189.405 15.08 188.838 13.04 187.705 11.68C186.628 10.32 184.645 9.64 181.755 9.64H178.185Z" fill="white"/>
</svg>
