<svg width="396" height="69" viewBox="0 0 396 69" fill="none" xmlns="http://www.w3.org/2000/svg">
<path d="M0.89 62V53.84L16.53 24.345C17.3233 22.8717 17.7767 21.5967 17.89 20.52C18.0033 19.3867 18.06 17.9983 18.06 16.355C18.06 15.6183 18.0317 14.8533 17.975 14.06C17.975 13.21 17.8333 12.4733 17.55 11.85C17.2667 11.2267 16.8417 10.7167 16.275 10.32C15.7083 9.86666 14.8867 9.64 13.81 9.64C12.5067 9.64 11.4583 10.0083 10.665 10.745C9.92833 11.4817 9.56 12.5583 9.56 13.975V18.905H0.89V14.145C0.89 12.3317 1.23 10.6317 1.91 9.045C2.59 7.45833 3.525 6.07 4.715 4.88C5.84833 3.69 7.20833 2.755 8.795 2.075C10.3817 1.33833 12.0817 0.969995 13.895 0.969995C16.1617 0.969995 18.0883 1.395 19.675 2.245C21.3183 3.03833 22.6783 4.14333 23.755 5.56C24.775 6.97666 25.5117 8.59166 25.965 10.405C26.475 12.2183 26.73 14.145 26.73 16.185C26.73 17.6583 26.7017 18.905 26.645 19.925C26.5883 20.8883 26.475 21.8233 26.305 22.73C26.135 23.6367 25.8517 24.5433 25.455 25.45C25.0583 26.3567 24.52 27.4617 23.84 28.765L11.09 53.33H26.73V62H0.89ZM33.196 68.29V53.33H41.866V62L33.196 68.29ZM92.7889 44.745V48.485C92.7889 50.355 92.4206 52.14 91.6839 53.84C91.0039 55.4833 90.0406 56.9567 88.7939 58.26C87.5473 59.5633 86.0739 60.6117 84.3739 61.405C82.7306 62.1417 80.9456 62.51 79.0189 62.51C77.3756 62.51 75.7039 62.2833 74.0039 61.83C72.3039 61.3767 70.7739 60.5833 69.4139 59.45C68.0539 58.3167 66.9206 56.8717 66.0139 55.115C65.1639 53.3017 64.7389 51.0067 64.7389 48.23V14.91C64.7389 12.9267 65.0789 11.085 65.7589 9.385C66.4389 7.685 67.4023 6.21166 68.6489 4.965C69.8956 3.71833 71.3689 2.755 73.0689 2.075C74.8256 1.33833 76.7523 0.969995 78.8489 0.969995C82.9289 0.969995 86.2439 2.30166 88.7939 4.965C90.0406 6.26833 91.0039 7.82666 91.6839 9.64C92.4206 11.3967 92.7889 13.3233 92.7889 15.42V18.82H84.1189V15.93C84.1189 14.23 83.6373 12.7567 82.6739 11.51C81.7106 10.2633 80.4073 9.64 78.7639 9.64C76.6106 9.64 75.1656 10.32 74.4289 11.68C73.7489 12.9833 73.4089 14.655 73.4089 16.695V47.635C73.4089 49.3917 73.7773 50.865 74.5139 52.055C75.3073 53.245 76.6956 53.84 78.6789 53.84C79.2456 53.84 79.8406 53.755 80.4639 53.585C81.1439 53.3583 81.7673 53.0183 82.3339 52.565C82.8439 52.1117 83.2689 51.4883 83.6089 50.695C83.9489 49.9017 84.1189 48.91 84.1189 47.72V44.745H92.7889ZM99.3532 15.76C99.3532 13.3233 99.7782 11.17 100.628 9.3C101.478 7.43 102.612 5.87166 104.028 4.625C105.388 3.435 106.918 2.52833 108.618 1.905C110.375 1.28166 112.132 0.969995 113.888 0.969995C115.645 0.969995 117.373 1.28166 119.073 1.905C120.83 2.52833 122.417 3.435 123.833 4.625C125.193 5.87166 126.298 7.43 127.148 9.3C127.998 11.17 128.423 13.3233 128.423 15.76V47.72C128.423 50.27 127.998 52.4517 127.148 54.265C126.298 56.0783 125.193 57.58 123.833 58.77C122.417 60.0167 120.83 60.9517 119.073 61.575C117.373 62.1983 115.645 62.51 113.888 62.51C112.132 62.51 110.375 62.1983 108.618 61.575C106.918 60.9517 105.388 60.0167 104.028 58.77C102.612 57.58 101.478 56.0783 100.628 54.265C99.7782 52.4517 99.3532 50.27 99.3532 47.72V15.76ZM108.023 47.72C108.023 49.8167 108.59 51.375 109.723 52.395C110.913 53.3583 112.302 53.84 113.888 53.84C115.475 53.84 116.835 53.3583 117.968 52.395C119.158 51.375 119.753 49.8167 119.753 47.72V15.76C119.753 13.6633 119.158 12.1333 117.968 11.17C116.835 10.15 115.475 9.64 113.888 9.64C112.302 9.64 110.913 10.15 109.723 11.17C108.59 12.1333 108.023 13.6633 108.023 15.76V47.72ZM136.055 62V1.48H144.385L155.52 33.525H155.69L166.74 1.48H175.155V62H166.485V25.195H166.315L157.73 51.205H153.395L144.895 25.195H144.725V62H136.055ZM183.286 62V1.48H191.616L202.751 33.525H202.921L213.971 1.48H222.386V62H213.716V25.195H213.546L204.961 51.205H200.626L192.126 25.195H191.956V62H183.286ZM230.773 62V1.48H239.443V62H230.773ZM253.561 62V9.64H243.531V1.48H272.261V9.64H262.231V62H253.561ZM281.784 62V9.64H271.754V1.48H300.484V9.64H290.454V62H281.784ZM304.311 62V1.48H330.151V9.64H312.981V27.405H327.941V35.565H312.981V53.33H330.151V62H304.311ZM335.771 62V1.48H361.611V9.64H344.441V27.405H359.401V35.565H344.441V53.33H361.611V62H335.771ZM395.281 18.905H386.611V16.95C386.611 14.9667 386.13 13.2667 385.166 11.85C384.26 10.3767 382.701 9.64 380.491 9.64C379.301 9.64 378.338 9.86666 377.601 10.32C376.865 10.7733 376.27 11.34 375.816 12.02C375.363 12.7567 375.051 13.6067 374.881 14.57C374.711 15.4767 374.626 16.44 374.626 17.46C374.626 18.65 374.655 19.6417 374.711 20.435C374.825 21.2283 375.051 21.9367 375.391 22.56C375.731 23.1833 376.213 23.7217 376.836 24.175C377.516 24.6283 378.423 25.0817 379.556 25.535L386.186 28.17C388.113 28.9067 389.671 29.785 390.861 30.805C392.051 31.7683 392.986 32.9017 393.666 34.205C394.29 35.565 394.715 37.1233 394.941 38.88C395.168 40.58 395.281 42.535 395.281 44.745C395.281 47.295 395.026 49.675 394.516 51.885C394.006 54.0383 393.185 55.88 392.051 57.41C390.861 58.9967 389.303 60.2433 387.376 61.15C385.45 62.0567 383.098 62.51 380.321 62.51C378.225 62.51 376.27 62.1417 374.456 61.405C372.643 60.6683 371.085 59.6483 369.781 58.345C368.478 57.0417 367.43 55.54 366.636 53.84C365.9 52.0833 365.531 50.185 365.531 48.145V44.915H374.201V47.635C374.201 49.2217 374.655 50.6667 375.561 51.97C376.525 53.2167 378.111 53.84 380.321 53.84C381.795 53.84 382.928 53.6417 383.721 53.245C384.571 52.7917 385.223 52.1683 385.676 51.375C386.13 50.5817 386.385 49.6467 386.441 48.57C386.555 47.4367 386.611 46.19 386.611 44.83C386.611 43.2433 386.555 41.94 386.441 40.92C386.328 39.9 386.101 39.0783 385.761 38.455C385.365 37.8317 384.826 37.3217 384.146 36.925C383.523 36.5283 382.673 36.1033 381.596 35.65L375.391 33.1C371.651 31.57 369.13 29.5583 367.826 27.065C366.58 24.515 365.956 21.3417 365.956 17.545C365.956 15.2783 366.268 13.125 366.891 11.085C367.515 9.045 368.45 7.28833 369.696 5.815C370.886 4.34166 372.388 3.18 374.201 2.33C376.071 1.42333 378.281 0.969995 380.831 0.969995C382.985 0.969995 384.94 1.36666 386.696 2.16C388.51 2.95333 390.068 4.00166 391.371 5.305C393.978 8.025 395.281 11.1417 395.281 14.655V18.905Z" fill="white"/>
</svg>
