<svg width="304" height="69" viewBox="0 0 304 69" fill="none" xmlns="http://www.w3.org/2000/svg">
<path d="M9.175 62V10.66L0.505 17.035V7.855L9.175 1.48H17.845V62H9.175ZM31.196 68.29V53.33H39.866V62L31.196 68.29ZM80.7589 40.835L76.5089 18.905H76.3389L72.0889 40.835H80.7589ZM59.3389 62L72.8539 1.48H80.0789L93.5939 62H84.9239L82.3739 48.995H70.5589L68.0089 62H59.3389ZM106.533 9.64V28.51H111.463C112.993 28.51 114.212 28.3117 115.118 27.915C116.025 27.4617 116.733 26.8383 117.243 26.045C117.697 25.2517 118.008 24.2883 118.178 23.155C118.348 21.965 118.433 20.605 118.433 19.075C118.433 17.545 118.348 16.2133 118.178 15.08C118.008 13.89 117.668 12.87 117.158 12.02C116.082 10.4333 114.042 9.64 111.038 9.64H106.533ZM97.8632 62V1.48H111.803C122.003 1.48 127.103 7.40167 127.103 19.245C127.103 22.815 126.537 25.8467 125.403 28.34C124.327 30.8333 122.4 32.845 119.623 34.375L128.973 62H119.793L111.718 36.16H106.533V62H97.8632ZM138.255 62V9.64H128.225V1.48H156.955V9.64H146.925V62H138.255ZM161.038 62V1.48H169.708V62H161.038ZM205.672 44.745V48.485C205.672 50.355 205.303 52.14 204.567 53.84C203.887 55.4833 202.923 56.9567 201.677 58.26C200.43 59.5633 198.957 60.6117 197.257 61.405C195.613 62.1417 193.828 62.51 191.902 62.51C190.258 62.51 188.587 62.2833 186.887 61.83C185.187 61.3767 183.657 60.5833 182.297 59.45C180.937 58.3167 179.803 56.8717 178.897 55.115C178.047 53.3017 177.622 51.0067 177.622 48.23V14.91C177.622 12.9267 177.962 11.085 178.642 9.385C179.322 7.685 180.285 6.21166 181.532 4.965C182.778 3.71833 184.252 2.755 185.952 2.075C187.708 1.33833 189.635 0.969995 191.732 0.969995C195.812 0.969995 199.127 2.30166 201.677 4.965C202.923 6.26833 203.887 7.82666 204.567 9.64C205.303 11.3967 205.672 13.3233 205.672 15.42V18.82H197.002V15.93C197.002 14.23 196.52 12.7567 195.557 11.51C194.593 10.2633 193.29 9.64 191.647 9.64C189.493 9.64 188.048 10.32 187.312 11.68C186.632 12.9833 186.292 14.655 186.292 16.695V47.635C186.292 49.3917 186.66 50.865 187.397 52.055C188.19 53.245 189.578 53.84 191.562 53.84C192.128 53.84 192.723 53.755 193.347 53.585C194.027 53.3583 194.65 53.0183 195.217 52.565C195.727 52.1117 196.152 51.4883 196.492 50.695C196.832 49.9017 197.002 48.91 197.002 47.72V44.745H205.672ZM212.746 62V1.48H221.416V53.33H238.586V62H212.746ZM244.206 62V1.48H270.046V9.64H252.876V27.405H267.836V35.565H252.876V53.33H270.046V62H244.206ZM303.716 18.905H295.046V16.95C295.046 14.9667 294.564 13.2667 293.601 11.85C292.694 10.3767 291.136 9.64 288.926 9.64C287.736 9.64 286.773 9.86666 286.036 10.32C285.299 10.7733 284.704 11.34 284.251 12.02C283.798 12.7567 283.486 13.6067 283.316 14.57C283.146 15.4767 283.061 16.44 283.061 17.46C283.061 18.65 283.089 19.6417 283.146 20.435C283.259 21.2283 283.486 21.9367 283.826 22.56C284.166 23.1833 284.648 23.7217 285.271 24.175C285.951 24.6283 286.858 25.0817 287.991 25.535L294.621 28.17C296.548 28.9067 298.106 29.785 299.296 30.805C300.486 31.7683 301.421 32.9017 302.101 34.205C302.724 35.565 303.149 37.1233 303.376 38.88C303.603 40.58 303.716 42.535 303.716 44.745C303.716 47.295 303.461 49.675 302.951 51.885C302.441 54.0383 301.619 55.88 300.486 57.41C299.296 58.9967 297.738 60.2433 295.811 61.15C293.884 62.0567 291.533 62.51 288.756 62.51C286.659 62.51 284.704 62.1417 282.891 61.405C281.078 60.6683 279.519 59.6483 278.216 58.345C276.913 57.0417 275.864 55.54 275.071 53.84C274.334 52.0833 273.966 50.185 273.966 48.145V44.915H282.636V47.635C282.636 49.2217 283.089 50.6667 283.996 51.97C284.959 53.2167 286.546 53.84 288.756 53.84C290.229 53.84 291.363 53.6417 292.156 53.245C293.006 52.7917 293.658 52.1683 294.111 51.375C294.564 50.5817 294.819 49.6467 294.876 48.57C294.989 47.4367 295.046 46.19 295.046 44.83C295.046 43.2433 294.989 41.94 294.876 40.92C294.763 39.9 294.536 39.0783 294.196 38.455C293.799 37.8317 293.261 37.3217 292.581 36.925C291.958 36.5283 291.108 36.1033 290.031 35.65L283.826 33.1C280.086 31.57 277.564 29.5583 276.261 27.065C275.014 24.515 274.391 21.3417 274.391 17.545C274.391 15.2783 274.703 13.125 275.326 11.085C275.949 9.045 276.884 7.28833 278.131 5.815C279.321 4.34166 280.823 3.18 282.636 2.33C284.506 1.42333 286.716 0.969995 289.266 0.969995C291.419 0.969995 293.374 1.36666 295.131 2.16C296.944 2.95333 298.503 4.00166 299.806 5.305C302.413 8.025 303.716 11.1417 303.716 14.655V18.905Z" fill="white"/>
</svg>
